HIERARCHY
ROOT Hips
{
	OFFSET 0.00000 0.00000 0.00000
	CHANNELS 6 Xposition Yposition Zposition Zrotation Yrotation Xrotation 
	JOINT LHipJoint
	{
		OFFSET 0 0 0
		CHANNELS 3 Zrotation Yrotation Xrotation
		JOINT LeftHip
		{
			OFFSET 1.28366 -1.58472 0.87544
			CHANNELS 3 Zrotation Yrotation Xrotation
			JOINT LeftKnee
			{
				OFFSET 2.18587 -6.00562 0.00000
				CHANNELS 3 Zrotation Yrotation Xrotation
				JOINT LeftAnkle
				{
					OFFSET 2.39085 -6.56880 0.00000
					CHANNELS 3 Zrotation Yrotation Xrotation
					JOINT LeftToe
					{
						OFFSET 0.12003 -0.32979 2.03101
						CHANNELS 3 Zrotation Yrotation Xrotation
						End Site
						{
							OFFSET 0.00000 -0.00000 1.04074
						}
					}
				}
			}
		}
	}
	JOINT RHipJoint
	{
		OFFSET 0 0 0
		CHANNELS 3 Zrotation Yrotation Xrotation
		JOINT RightHip
		{
			OFFSET -1.21795 -1.58472 0.87544
			CHANNELS 3 Zrotation Yrotation Xrotation
			JOINT RightKnee
			{
				OFFSET -2.22714 -6.11902 0.00000
				CHANNELS 3 Zrotation Yrotation Xrotation
				JOINT RightAnkle
				{
					OFFSET -2.40306 -6.60235 0.00000
					CHANNELS 3 Zrotation Yrotation Xrotation
					JOINT RightToe
					{
						OFFSET -0.15519 -0.42640 1.91430
						CHANNELS 3 Zrotation Yrotation Xrotation
						End Site
						{
							OFFSET -0.00000 -0.00000 0.99082
						}
					}
				}
			}
		}
	}
	JOINT lowerback
	{
		OFFSET 0 0 0
		CHANNELS 3 Zrotation Yrotation Xrotation
		JOINT Chest
		{
			OFFSET 0.01180 1.76430 -0.06387
			CHANNELS 3 Zrotation Yrotation Xrotation
			JOINT Chest2
			{
				OFFSET -0.00388 1.74651 0.09536
				CHANNELS 3 Zrotation Yrotation Xrotation
				JOINT lowerneck
				{
					OFFSET 0 0 0
					CHANNELS 3 Zrotation Yrotation Xrotation
					JOINT Neck
					{
						OFFSET 0.04111 1.46174 0.14397
						CHANNELS 3 Zrotation Yrotation Xrotation
						JOINT Head
						{
							OFFSET 0.00502 1.44580 -0.31711
							CHANNELS 3 Zrotation Yrotation Xrotation
							End Site
							{
								OFFSET -0.00395 1.49251 -0.12327
							}
						}
					}
				}
				JOINT LeftCollar
				{
					OFFSET 0 0 0
					CHANNELS 3 Zrotation Yrotation Xrotation
					JOINT LeftShoulder
					{
						OFFSET 2.70917 1.34870 -0.15417
CHANNELS 3 Zrotation Xrotation Yrotation
						JOINT LeftElbow
						{
OFFSET 0 -4.466100 -0.000000
CHANNELS 3 Zrotation Xrotation Yrotation
							JOINT LeftWrist
							{
OFFSET 0 -3.414140 0.000000
CHANNELS 3 Zrotation Xrotation Yrotation
								JOINT lhand
								{
									OFFSET 0 0 0
CHANNELS 3 Zrotation Xrotation Yrotation
									JOINT LFingers
									{
OFFSET 0 -0.328300 0.000000
CHANNELS 3 Zrotation Xrotation Yrotation
										End Site
										{
OFFSET 0 -0.264680 0.000000
										}
									}
								}
								JOINT LThumb
								{
OFFSET 0 0.000000 0.000000
CHANNELS 3 Zrotation Xrotation Yrotation
									End Site
									{
OFFSET 0 -0.268720 0.268720
									}
								}
							}
						}
					}
				}
				JOINT RightCollar
				{
					OFFSET 0 0 0
					CHANNELS 3 Zrotation Yrotation Xrotation
					JOINT RightShoulder
					{
						OFFSET -3.06316 1.13725 -0.10883
CHANNELS 3 Zrotation Xrotation Yrotation
						JOINT RightElbow
						{
OFFSET 0 -4.404310 0.000000
CHANNELS 3 Zrotation Xrotation Yrotation
							JOINT RightWrist
							{
OFFSET 0 -3.046880 0.000000
CHANNELS 3 Zrotation Xrotation Yrotation
								JOINT rhand
								{
									OFFSET 0 0 0
CHANNELS 3 Zrotation Xrotation Yrotation
									JOINT RFingers
									{
OFFSET 0 -0.500490 0.000000
CHANNELS 3 Zrotation Xrotation Yrotation
										End Site
										{
OFFSET 0 -0.403510 0.000000
										}
									}
								}
								JOINT RThumb
								{
OFFSET 0 0.000000 0.000000
CHANNELS 3 Zrotation Xrotation Yrotation
									End Site
									{
OFFSET 0 -0.409670 0.409670
									}
								}
							}
						}
					}
				}
			}
		}
	}
}
MOTION
Frames: 7
Frame Time: 0.008333333333333333
44.841100 12.707100 14.177400 -3.608300 -28.535200 5.359200 0.000000 0.000000 0.000000 -15.470100 22.783800 -47.376200 17.294100 19.823500 82.066000 4.153900 -9.078900 -37.143900 0.145000 2.453900 6.761900 0.000000 0.000000 0.000000 17.846200 -32.823700 -50.591200 -17.101000 -19.797300 81.496400 -2.754400 -7.553600 -34.688500 -0.277300 3.387000 -9.358200 0.602800 -1.027600 5.215300 0.181900 -1.336000 -5.715600 0.028500 -0.695000 -8.967800 -9.107400 -14.776900 -9.358400 12.529300 -21.511700 15.737900 2.964300 -9.843300 8.819700 0.000000 0.000000 0.000000 87.588200 -12.521500 -67.068100 137.541100 -49.461100 99.711400 56.271200 -24.081600 5.747000 0.000000 0.000000 0.000000 -7.125000 0.000000 0.000000 20.813800 19.960900 13.358500 0.000000 0.000000 0.000000 -73.753700 -16.119500 66.943800 -129.773900 -53.086300 -93.645200 -51.311300 -42.364100 -32.761100 0.000000 0.000000 0.000000 7.125000 0.000000 -0.000000 -10.180300 -15.229400 -12.667400
44.824904 12.705842 14.178931 -3.571752 -28.590463 5.175333 0.000000 0.000000 0.000000 -15.393405 22.972586 -47.131293 17.245182 19.817053 81.921819 4.163801 -8.337401 -37.253137 0.069133 1.652614 4.547626 0.000000 0.000000 0.000000 17.658359 -33.001809 -50.350451 -17.123616 -19.800483 81.563042 -3.209501 -4.837325 -35.788733 -0.011135 0.626307 -1.721274 0.541559 -0.986115 5.130679 0.185087 -1.286339 -5.720791 0.058101 -0.666832 -8.921519 -8.800202 -14.655529 -9.513573 11.949539 -21.332543 16.282829 2.751152 -9.763546 8.904720 0.000000 0.000000 0.000000 87.506277 -12.446345 -67.061024 137.466405 -49.501387 99.654574 55.822852 -23.737456 5.602624 0.000000 0.000000 0.000000 -7.125000 0.000000 0.000000 20.575353 20.301510 13.012359 0.000000 0.000000 0.000000 -73.513505 -15.863842 66.683281 -129.998188 -52.996218 -93.824381 -50.927746 -42.123293 -32.858455 0.000000 0.000000 0.000000 7.125000 0.000000 0.000000 -9.951161 -15.127261 -12.362347
44.808670 12.708434 14.178848 -3.526010 -28.702557 5.029724 0.000000 0.000000 0.000000 -15.400516 23.224310 -46.898964 17.128838 19.801170 81.578622 4.175546 -7.095551 -37.435288 0.006298 0.507025 1.393197 0.000000 0.000000 0.000000 17.570091 -33.129072 -50.159456 -17.109798 -19.798518 81.522320 -3.400061 -3.813546 -36.342071 -0.003793 -0.397356 1.091750 0.314557 -0.936141 5.010475 0.230320 -1.237075 -5.677832 0.223846 -0.626420 -8.796845 -8.710782 -14.575885 -9.613003 11.903939 -21.264185 16.555866 2.723392 -9.715514 8.992534 0.000000 0.000000 0.000000 87.520261 -12.188878 -66.855895 137.541389 -49.460944 99.711609 55.540120 -23.802594 5.731738 0.000000 0.000000 0.000000 -7.125000 0.000000 0.000000 20.352768 20.155110 12.924189 0.000000 0.000000 0.000000 -73.486044 -15.473984 66.412963 -130.327851 -52.862429 -94.087460 -50.759354 -41.750830 -32.753274 0.000000 0.000000 0.000000 7.125000 0.000000 0.000000 -9.899878 -14.916564 -12.271382
44.793333 12.719760 14.176318 -3.494650 -28.812553 4.958370 0.000000 0.000000 0.000000 -15.364787 23.414970 -46.679550 17.020627 19.785840 81.259064 4.197057 -6.851747 -37.566940 0.000566 0.149504 0.410801 0.000000 0.000000 0.000000 17.592338 -33.171363 -49.973773 -17.040380 -19.788681 81.317410 -3.459218 -3.466866 -36.506401 -0.010229 -0.653214 1.795161 0.069162 -0.914584 4.867799 0.272427 -1.227412 -5.631405 0.401074 -0.604860 -8.655586 -8.588805 -14.535976 -9.699355 11.981847 -21.265871 16.687689 2.722461 -9.693967 9.049674 0.000000 0.000000 0.000000 87.622809 -11.759515 -66.650871 137.664755 -49.394194 99.805310 55.307938 -23.432935 5.649963 0.000000 0.000000 0.000000 -7.125000 0.000000 0.000000 20.229891 20.339576 12.744710 0.000000 0.000000 0.000000 -73.596886 -15.097792 66.237763 -130.541618 -52.774700 -94.257765 -50.470483 -41.577388 -32.853441 0.000000 0.000000 0.000000 7.125000 0.000000 0.000000 -9.718369 -14.872379 -12.035493
44.780299 12.733932 14.170736 -3.464656 -28.838438 4.944822 0.000000 0.000000 0.000000 -15.343210 23.479032 -46.569428 16.935569 19.773326 81.007513 4.190452 -6.788733 -37.543030 0.000024 -0.026139 -0.071771 0.000000 0.000000 0.000000 17.663391 -33.204887 -49.862067 -16.961062 -19.777126 81.082918 -3.516804 -2.930840 -36.594024 -0.031108 -1.138782 3.130820 -0.194175 -0.926563 4.723864 0.338259 -1.261869 -5.604246 0.618918 -0.603346 -8.533651 -8.372074 -14.511112 -9.739436 11.908903 -21.254345 16.726763 2.669822 -9.679638 9.035750 0.000000 0.000000 0.000000 87.690645 -11.354494 -66.614208 137.708800 -49.370265 99.838743 55.301419 -22.716948 5.265127 0.000000 0.000000 0.000000 -7.125000 0.000000 0.000000 20.348276 20.963829 12.520334 0.000000 0.000000 0.000000 -73.872558 -14.825283 66.233652 -130.517994 -52.784410 -94.238911 -50.026690 -41.277128 -32.828230 0.000000 0.000000 0.000000 7.125000 0.000000 0.000000 -9.498707 -14.605624 -11.725581
44.769492 12.748979 14.163271 -3.484722 -28.811031 5.005435 0.000000 0.000000 0.000000 -15.320418 23.510327 -46.594693 16.871560 19.763737 80.818327 4.164802 -7.050075 -37.389280 0.001424 0.241613 0.663845 0.000000 0.000000 0.000000 17.844495 -33.251495 -49.880059 -16.889991 -19.766492 80.872887 -3.525632 -2.874290 -36.617421 -0.032845 -1.170229 3.217363 -0.422076 -0.934416 4.514913 0.444104 -1.283747 -5.565684 0.855826 -0.597313 -8.361121 -8.228870 -14.500800 -9.678307 11.730661 -21.215063 16.681889 2.607818 -9.673497 8.966778 0.000000 0.000000 0.000000 87.697987 -11.145463 -66.704236 137.592587 -49.433236 99.750517 55.240299 -22.596452 5.030690 0.000000 0.000000 0.000000 -7.125000 0.000000 0.000000 20.383821 21.355817 12.349866 0.000000 0.000000 0.000000 -74.258068 -14.595610 66.318490 -130.410394 -52.828619 -94.153231 -49.410938 -40.491589 -32.500660 0.000000 0.000000 0.000000 7.125000 0.000000 0.000000 -9.288020 -13.911639 -11.378571
44.761195 12.763252 14.153148 -3.583333 -28.808537 5.097994 0.000000 0.000000 0.000000 -15.261275 23.674633 -46.690788 16.807596 19.753858 80.629170 4.143316 -7.034685 -37.288566 0.001232 0.226669 0.622732 0.000000 0.000000 0.000000 18.121877 -33.303128 -49.964208 -16.833039 -19.757767 80.704287 -3.515384 -2.920749 -36.582807 -0.032718 -1.166913 3.208241 -0.534143 -0.903447 4.324711 0.558256 -1.242123 -5.513692 1.029032 -0.567420 -8.188781 -8.190175 -14.509474 -9.573556 11.495700 -21.182892 16.695019 2.542691 -9.680989 8.915322 0.000000 0.000000 0.000000 87.690361 -11.161842 -66.850518 137.325204 -49.577152 99.547151 55.242167 -22.571381 4.754664 0.000000 0.000000 0.000000 -7.125000 0.000000 0.000000 20.474076 21.802397 12.187677 0.000000 0.000000 0.000000 -74.608897 -14.332756 66.363960 -130.335555 -52.859231 -94.093607 -48.542752 -39.423974 -32.275433 0.000000 0.000000 0.000000 7.125000 0.000000 0.000000 -8.909883 -13.210334 -10.825254
